<?xml version="1.0" encoding="utf-8"?>
<!DOCTYPE svg PUBLIC "-//W3C//DTD SVG 1.1//EN" "http://www.w3.org/Graphics/SVG/1.1/DTD/svg11.dtd">
<svg version="1.1" id="Layer_1" xmlns="http://www.w3.org/2000/svg" xmlns:xlink="http://www.w3.org/1999/xlink" x="0px" y="0px"
      viewBox="0 0 623.333 134.667" enable-background="new 0 0 623.333 134.667"
     xml:space="preserve">
    <g>
        <path fill="#342C27" d="M68.9,63.336c-0.152,0.685-0.16,1.447-0.48,2.042c-2.255,4.196-3.631,8.839-6.537,12.713
            c-0.481,0.641-0.415,1.679-0.654,2.52c-0.574,2.023-0.835,4.239-1.867,5.999c-1.063,1.812-0.129,4.003-1.559,5.582
            c0.056,2.493,0.111,4.986,0.168,7.516c0.524,0.654,0.935,1.509,2.223,1.603c1.212-0.649,2.571-1.463,4.001-2.124
            c2.146-0.992,3.891-2.445,5.551-4.11c2.136-2.142,3.912-4.692,6.66-6.179c0.661-1.754,1.987-2.88,3.562-3.77
            c0.33-1.694,2.75-1.766,2.836-3.65c2.2-2.061,3.819-4.706,6.651-6.155c1.048-0.536,1.728-1.794,2.649-2.804
            c0.907-1.568,1.894-3.246,2.852-4.941c0.434-0.768,0.86-1.549,1.2-2.362c0.747-1.785,1.26-3.694,2.198-5.367
            c1.035-1.846,2.347-3.562,3.706-5.194c1.721-2.066,3.61-3.992,5.406-5.955c1.447-0.032,2.679-0.06,4.202-0.094
            c2.538,0.741,4.793,2.345,6.433,4.575c-0.43,3.426-3.347,5.146-4.571,7.877c-3.059,1.948-4.552,5.32-7.036,7.815
            c-1.307,1.313-1.86,3.378-2.849,5.288c-0.025,1.063-0.055,2.311-0.087,3.693c-0.926,1.975-1.903,4.057-2.844,6.063
            c-0.414,2.147,0.016,4.223-0.76,6.392c-0.737,2.059-0.843,4.642,0.345,6.766c1.119,1.999-0.12,4.292,1.161,6.361
            c0.394-0.033,1.012,0.105,1.324-0.143c1.636-1.3,3.383-2.477,4.509-4.351c0.543-0.905,1.411-1.622,2.166-2.391
            c4.504-4.587,8.622-9.484,12.178-14.852c0.588-0.888,1.471-1.574,2.154-2.406c1.578-1.921,3.786-3.328,4.725-5.771
            c2.367-0.891,3.052-3.316,4.545-5.003c1.654-1.87,3.105-3.945,4.909-5.651c1.533-1.451,2.96-2.846,4.043-4.725
            c0.994-1.725,2.996-2.4,5.12-3.031c2.051,1.191,4.548,1.69,6.622,3.73c0.082,0.648,0.193,1.513,0.272,2.132
            c-0.636,2.585-1.962,4.43-3.67,6.063c-0.54,0.517-0.743,1.212,0.028,1.979c0.992-1.02,2.043-1.984,2.957-3.063
            c3.019-3.566,6.819-6.284,10.324-9.291c2.23-1.913,5.173-3.042,8.496-3.035c1.482,0.685,3.088,1.427,4.808,2.222
            c0.509,0.802,1.077,1.696,1.624,2.556c0.618,2.675-0.816,4.836-1.677,7.117c-0.243,0.645-0.787,1.181-1.215,1.75
            c-2.59,3.448-3.581,7.587-4.884,11.57c-0.428,1.309-0.252,2.816-0.36,4.338c-0.506,0.625-1.068,1.318-1.829,2.258
            c-0.03,0.98,0.04,2.23-0.14,3.441c-0.152,1.024-0.677,1.99-0.872,3.013c-0.084,0.44,0.246,0.959,0.436,1.605
            c0.644-0.624,1.223-1.068,1.658-1.624c2.954-3.776,5.464-7.893,8.784-11.39c0.349-0.368,0.486-0.929,0.77-1.369
            c1.542-2.38,3.459-4.564,4.8-6.998c1.359-2.467,2.799-4.892,4.282-7.269c2.824-4.529,5.921-8.885,9.987-12.648
            c0.964-0.468,2.073-1.007,3.223-1.566c1.214,0.437,2.363,0.851,3.643,1.312c1.109,0.992,2.31,2.066,3.355,3
            c0.143,0.834,0.4,1.391,0.293,1.865c-0.542,2.391-0.849,4.841-1.758,7.144c-1.587,4.019-2.777,8.162-3.924,12.345
            c0.474,0.049,0.812,0.084,1.139,0.118c0.724-0.998,1.356-2.074,2.184-2.967c1.941-2.095,4.103-4.001,5.306-6.679
            c2.315-1.174,3.264-3.62,4.971-5.364c1.236-1.264,2.704-2.369,3.252-4.192c0.095-0.316,0.424-0.572,0.672-0.83
            c1.492-1.553,2.781-3.432,4.55-4.553c1.773-1.123,2.214-3.221,3.864-4.249c3.147-1.961,5.636-4.915,9.66-6.172
            c1.245-0.176,2.742,0.056,4.237,0.888c2.446,1.361,4.081,3.389,5.35,5.781c0.855,3.074-0.177,5.953-1.002,8.838
            c-0.962,3.365-1.585,6.866-3.781,9.916c0.026,1.147,0.054,2.402,0.085,3.816c-2.125,1.603-2.558,4.212-2.888,6.525
            c-0.323,2.263-1.836,4.324-1.2,6.728c-1.26,2.696-0.576,5.611-0.977,8.39c-0.326,2.258-1.164,4.442-0.767,6.78
            c0.058,0.341,0.176,0.671,0.299,1.127c1.412-0.153,2.519-0.888,3.49-1.859c1.778-1.778,3.559-3.555,5.291-5.378
            c5.198-5.467,10.446-10.89,15.526-16.465c2.509-2.754,4.703-5.797,7.018-8.726c0.656-0.83,1.187-1.76,1.859-2.574
            c1.356-1.643,2.746-3.225,3.976-5c1.922-2.776,4.368-5.218,7.723-6.204c2.699-3.061,5.543-5.75,9.787-7.291
            c1.143-0.025,2.754-0.061,4.384-0.098c0.948,0.427,1.917,0.862,3.168,1.425c1.078,1.046,2.366,2.295,3.639,3.53
            c0.951,1.746,1.885,3.461,2.871,5.272c0.084,1.141,0.176,2.395,0.268,3.649c2.662,4.973,2.662,4.973,0.284,10.801
            c0.174,0.305,0.349,0.611,0.607,1.062c-0.881,1.954-0.668,4.242-1.531,6.391c-0.839,2.09-1.083,4.465-2.216,6.444
            c-1.577,2.755-3.353,5.402-5.165,8.012c-0.703,1.012-1.587,2.157-2.654,2.596c-1.626,0.669-2.519,1.979-3.623,3.102
            c-4.431,4.511-9.596,7.771-15.596,9.823c-1.213,0.415-2.362,0.719-3.601,0.774c-1.434,0.064-2.87,0.072-4.186,0.101
            c-1.905-0.881-3.676-1.7-5.609-2.594c-0.895-0.894-1.908-1.907-2.804-2.801c-0.165-0.513-0.354-0.844-0.367-1.182
            c-0.081-1.972-0.128-3.946-0.172-5.92c-0.032-1.406-0.087-2.807-0.218-4.55c-4.576,6.055-9.992,10.655-14.738,16.151
            c-2.163,0.835-4.412,1.852-6.752,2.566c-2.367,0.722-4.491-0.681-7.544-1.381c-0.975-1.023-2.455-2.575-3.696-3.877
            c-0.878-2.758,0.247-5.426-1.229-7.7c0.976-2.017,0.41-4.195,0.676-6.279c0.265-2.081,0.847-4.123,1.311-6.177
            c0.153-0.678,0.596-1.369,0.517-2.006c-0.231-1.871,0.554-3.503,1.072-5.169c0.989-3.179,1.347-6.53,2.663-9.614
            c0.069-0.161,0.225-0.321,0.216-0.475c-0.228-4.026,1.667-7.548,2.702-11.268c0.396-1.424,0.544-2.72-0.296-3.985
            c-0.406,0.049-0.889-0.041-1.075,0.153c-2.089,2.177-4.266,4.208-6.015,6.772c-2.385,3.495-4.907,6.924-7.396,10.362
            c-1.249,1.725-2.502,3.447-3.721,5.193c-0.606,0.868-0.99,1.947-1.74,2.645c-1.465,1.364-2.356,3.088-3.446,4.699
            c-1.089,1.609-2.203,3.217-3.472,4.682c-1.172,1.353-2.564,2.515-3.464,4.074c-2.694,4.546-5.387,9.092-8.132,13.725
            c-2.063,0.046-4.018,0.09-6.398,0.143c-1.63-0.53-3.59-1.34-4.954-3.328c-0.493-0.896-0.554-2.209-0.102-2.996
            c1.985-3.456,1.972-7.492,3.465-11.077c0.391-0.938,0.215-2.099,0.394-3.142c0.142-0.827,1.224-1.396,0.616-2.481
            c-0.198,0.016-0.575-0.068-0.717,0.078c-1.001,1.025-2.065,2.017-2.897,3.172c-1.332,1.85-2.453,3.849-3.75,5.726
            c-1.312,1.898-2.736,3.718-4.094,5.585c-0.308,0.424-0.633,0.869-0.801,1.357c-1.281,3.71-4.188,6.173-6.839,8.795
            c-0.976,0.965-2.362,1.515-3.467,2.196c-3.104,0.264-5.63-1.152-8.237-2.072c-0.884-1.188-1.733-2.329-2.858-3.84
            c-0.055-2.48,0.066-5.36-0.234-8.196c-0.31-2.929,1.651-5.503,0.934-8.199c0.852-2.004,1.58-3.779,2.155-5.657
            c0.924-3.017,1.982-6.037,3.526-8.844c0.312-0.566,0.335-1.382,0.236-2.045c-0.05-0.33-0.677-0.574-1.223-0.996
            c-1.819,3.431-4.314,6.148-6.157,9.318c-0.355,0.61-0.858,1.153-1.367,1.652c-3.581,3.512-6.005,7.889-8.925,11.895
            c-0.621,0.852-1.185,1.748-1.763,2.631c-1.432,2.189-2.883,4.286-3.803,6.852c-1.058,2.951-2.819,5.727-5.175,7.962
            c-1.601-0.945-2.906,0.804-4.419,0.375c-1.52-0.431-3.046-0.837-4.843-1.329c-0.68-0.986-1.48-2.147-2.407-3.493
            c1.333-3.806,2.708-7.731,4.078-11.641c-0.511-0.228-0.812-0.362-1.339-0.598c-0.671,0.908-1.272,1.96-2.102,2.78
            c-0.863,0.853-2.15,1.319-2.892,2.244c-1.535,1.911-2.814,4.026-4.235,6.031c-0.611,0.861-1.153,1.924-2.003,2.435
            c-2.695,1.62-4.923,4.117-8.275,4.56c-0.32,0.042-0.602,0.376-0.869,0.552c-4.894,0.737-9.078-0.805-13.234-4.139
            c-0.755-1.841-1.683-4.106-2.547-6.215c0.253-0.55,0.401-0.872,0.55-1.195c-0.578-3.075-1.531-6.123,0.086-9.226
            c0.342-0.656,0.257-1.758-0.853-2.498c-1.714,0.568-2.615,2.216-3.864,3.405c-1.299,1.238-2.462,2.616-3.738,3.881
            c-1.149,1.139-1.911,2.522-2.791,3.852c-0.98,1.481-2.349,2.705-3.116,3.56c-4.332,2.328-7.976,4.52-12.038,5.844
            c-0.501,0.164-0.99,0.39-1.503,0.492c-1.001,0.199-7.61-1.334-8.689-2.045c-2.133-1.404-4.129-3.184-4.77-5.604
            c-0.802-3.028-2.32-6.156-1.368-9.338c0.955-3.194,1.285-6.568,2.807-9.605c1.331-2.656,1.474-5.874,3.829-8.061
            c0.215-0.2,0.266-0.659,0.263-0.997c-0.017-1.995,1.48-2.654,2.897-3.343c-0.185-0.471-0.36-0.92-0.532-1.358
            c0.535-0.295,0.99-0.545,1.651-0.909c0.058-0.919,0.123-1.965,0.188-2.99c2.409-3.103,4.804-6.187,7.001-9.017
            c0.307-1.127,0.323-2.122,0.804-2.776c1.358-1.848,2.651-3.72,3.67-5.777c0.157-0.317,0.349-0.624,0.566-0.903
            c1.52-1.95,3.79-3.262,4.683-5.763c0.791-2.216,2.425-3.906,3.912-5.677c0.33-0.393,0.34-1.182,0.717-1.39
            c3.661-2.018,5.639-5.933,9.229-8.056c1.511-0.894,2.778-2.105,4.614-2.493c0.782-0.165,1.41-1.057,2.417-1.868
            c1.126-0.025,2.552-0.057,3.979-0.089c1.607-0.036,3.245-0.231,4.617,0.916c4.042,0.31,6.345,2.786,7.839,6.316
            c0.035,1.585,1.202,14.295,0.997,15.879c-0.199,1.538-0.839,3.018-1.362,4.781c-0.391-0.646-0.687-1.135-1.099-1.816
            c-0.657,0.584-1.384-3.349-2.066-2.744c-1.25-0.383-2.534-0.776-3.996-1.224c-0.057-2.546-0.955-11.606-1.005-13.861
            c-0.827-0.868-1.379-0.612-2.089-0.286c-1.59,0.73-3.448,1.02-4.846,1.992c-2.328,1.618-4.511,3.501-6.51,5.516
            c-1.871,1.885-3.794,3.725-5.177,6.116c-1.055,1.823-2.81,3.245-4.275,4.826c-1.343,1.449-2.716,2.87-4.143,4.375
            c-2.088,3.951-3.77,8.319-7.88,10.941c-0.203-1.038-0.747-1.729-1.963-1.882c-0.344,0.465-0.694,0.94-1.332,1.804
            C66.922,63.453,67.908,63.44,68.9,63.336z M290.459,60.962c-1.088,1.281-1.921,2.843-3.221,3.673
            c-2.955,1.886-5.048,4.444-6.794,7.369c-1.717,2.875-3.254,5.815-4.267,9.055c-1.092,3.49-1.792,7.131-3.587,10.384
            c-0.165,0.299-0.232,0.653-0.387,1.103c0.021,0.955,0.045,2.031,0.067,3.012c-0.926,2.054-0.926,2.054-0.533,3.972
            c0.149,0.083,0.292,0.221,0.449,0.24c2.683,0.334,4.326-2.425,6.748-2.318c1.548-1.151,2.922-2.283,4.405-3.246
            c1.778-1.154,3.305-2.426,4.682-4.139c1.527-1.901,3.136-3.755,4.452-5.804c1.333-2.075,2.429-4.303,3.603-6.478
            c0.246-0.455,0.573-0.99,0.528-1.457c-0.237-2.475,1.44-4.325,2.062-6.576c-0.019-0.846-0.046-1.742-0.057-2.639
            c-0.013-1.076-0.016-2.153-0.013-3.23c0.003-0.891,0.182-1.722,0.445-2.595c0.245-0.81-0.342-1.82,0.077-2.713
            c-0.457-0.783-0.901-1.542-1.427-2.443c-1.39,0.031-2.817-0.012-4.228,0.114c-1.535,0.137-3.159-0.31-4.524,0.465
            C289.505,58.296,290.028,59.758,290.459,60.962z M59.397,76.947c-0.13-0.398-0.272-0.831-0.49-1.498
            c-0.61,0.701-1.048,1.206-1.488,1.711C58.24,77.898,58.803,77.566,59.397,76.947z M58.086,79.176
            c-0.653-0.65-1.145-0.502-1.566,0.239C57.157,79.984,57.666,79.939,58.086,79.176z M53.785,90.502
            c0.613-0.587,0.673-1.168,0.003-1.758C53.121,89.331,53.206,89.913,53.785,90.502z M64.075,65.833
            c-0.132,0.119-0.264,0.238-0.396,0.357c0.124,0.127,0.239,0.342,0.375,0.355c0.112,0.011,0.336-0.208,0.346-0.338
            C64.408,66.092,64.191,65.959,64.075,65.833z"/>
        <g>
            <g enable-background="new    ">
                <path fill="#342C27" d="M402.209,25.444c0,1.664-0.612,3.154-1.835,4.476c-1.224,1.32-2.96,1.98-5.209,1.98h-18.929v84.079
                    c0,2.642-0.612,4.673-1.834,6.09c-1.225,1.417-2.96,2.128-5.209,2.128c-2.153,0-3.889-0.711-5.209-2.128
                    c-1.321-1.417-1.981-3.448-1.981-6.09V31.9h-18.782c-2.348,0-4.134-0.66-5.355-1.98c-1.225-1.321-1.834-2.812-1.834-4.476
                    c0-1.662,0.635-3.178,1.907-4.549c1.271-1.369,2.983-2.055,5.136-2.055h52.091c2.151,0,3.863,0.66,5.136,1.981
                    C401.572,22.142,402.209,23.683,402.209,25.444z"/>
                <path fill="#342C27" d="M482.621,118.327c0,1.665-0.587,3.059-1.761,4.183c-1.174,1.123-2.74,1.688-4.695,1.688
                    c-2.252,0-3.914-0.539-4.989-1.614c-1.077-1.075-1.907-2.444-2.494-4.108l-7.924-22.598h-42.847l-7.777,22.45
                    c-0.587,1.665-1.394,3.059-2.421,4.183c-1.027,1.123-2.666,1.688-4.916,1.688c-1.958,0-3.521-0.564-4.695-1.688
                    c-1.174-1.124-1.761-2.518-1.761-4.183c0-1.174,0.342-2.689,1.027-4.549l30.521-87.014c0.39-1.075,0.855-2.15,1.395-3.229
                    c0.536-1.075,1.247-2.054,2.128-2.935c0.88-0.88,1.955-1.589,3.228-2.127c1.271-0.537,2.836-0.808,4.695-0.808
                    c3.815,0,6.553,0.954,8.218,2.861c1.662,1.908,2.884,3.987,3.668,6.236l30.228,86.721
                    C482.229,115.539,482.621,117.153,482.621,118.327z M439.627,31.607h-0.294l-17.461,52.091h35.069L439.627,31.607z"/>
                <path fill="#342C27" d="M542.928,25.444c0,1.664-0.612,3.154-1.835,4.476c-1.224,1.32-2.96,1.98-5.209,1.98h-18.929v84.079
                    c0,2.642-0.612,4.673-1.834,6.09c-1.225,1.417-2.96,2.128-5.209,2.128c-2.153,0-3.889-0.711-5.209-2.128
                    c-1.321-1.417-1.981-3.448-1.981-6.09V31.9H483.94c-2.348,0-4.134-0.66-5.355-1.98c-1.225-1.321-1.834-2.812-1.834-4.476
                    c0-1.662,0.635-3.178,1.907-4.549c1.271-1.369,2.983-2.055,5.136-2.055h52.091c2.151,0,3.863,0.66,5.136,1.981
                    C542.291,22.142,542.928,23.683,542.928,25.444z"/>
                <path fill="#342C27" d="M608.078,116.712c0,1.665-0.638,3.181-1.907,4.549c-1.272,1.371-3.033,2.055-5.283,2.055h-36.684
                    c-5.381,0-8.07-2.444-8.07-7.337V26.764c0-2.444,0.636-4.377,1.908-5.796c1.27-1.417,3.324-2.128,6.162-2.128h35.217
                    c2.249,0,4.01,0.66,5.282,1.981c1.271,1.32,1.907,2.861,1.907,4.622c0,1.664-0.637,3.154-1.907,4.476
                    c-1.272,1.32-3.033,1.98-5.282,1.98h-28.907v32.575h27.439c2.348,0,4.157,0.66,5.43,1.981c1.271,1.32,1.907,2.861,1.907,4.622
                    c0,1.664-0.637,3.154-1.907,4.475c-1.272,1.321-3.082,1.981-5.43,1.981h-27.586v32.722h30.521c2.25,0,4.011,0.638,5.283,1.907
                    C607.44,113.437,608.078,114.952,608.078,116.712z"/>
            </g>
        </g>
        <circle fill="#C6D43A" cx="21.123" cy="76.393" r="11.79"/>
        <circle fill="#C6D43A" cx="333.296" cy="76.393" r="11.79"/>
    </g>
</svg>
